<?xml version="1.0" encoding="utf-8"?>
<!-- Generator: Adobe Illustrator 17.1.0, SVG Export Plug-In . SVG Version: 6.00 Build 0)  -->
<!DOCTYPE svg PUBLIC "-//W3C//DTD SVG 1.1//EN" "http://www.w3.org/Graphics/SVG/1.1/DTD/svg11.dtd">
<svg version="1.1" id="Layer_1" xmlns="http://www.w3.org/2000/svg" xmlns:xlink="http://www.w3.org/1999/xlink" x="0px" y="0px"
	 viewBox="0 0 68.1 397.6" enable-background="new 0 0 68.1 397.6" xml:space="preserve">
<path fill="none" stroke="#000000" stroke-width="6.000000e-002" stroke-linecap="round" stroke-linejoin="round" stroke-miterlimit="10" d="
	M165.9,128.8V0h-1.4l-1.3,0.1c-23.6,1.9-39.6,25.1-47.6,45.1l-0.8,2.2l-0.8,2.3c-11.2,31.1-11.9,68.5-3.2,100.2l0.9,3.2l1,3.1
	l0.9,1.9l0.8,1.8l0.8,1.9c3.4,8.1,5.1,16.9,4.9,25.6l-0.1,1.9l-0.2,1.8c-0.7,8.7-3.3,16.6-7.1,24.4l-0.1,0.4V395
	c0.2,1.4,1.2,2.4,2.6,2.6h47.9c1.5-0.1,2.6-1.1,2.8-2.6V128.8"/>
<path fill="#FFFFFF" d="M7.4,216.1v-53.6l0.1-0.6c0.7-2.1,1.9-4,2.6-6.1l0.7-1.9l0.6-1.8c1.2-3.6,2.1-7.2,2.7-11l0.2-1.9l0.2-1.8
	l0.1-1.9c0.7-9.9-1.5-20.2-5.6-29.3l-0.8-1.9l-0.9-1.9l-0.7-2.3c-3.4-11-5.5-22.5-6.5-34L0,64L0,4.5L0.1,4l0.1-0.4
	c1.4-4.5,7.4-4.8,9.2-0.5l0.2,0.5L9.7,4l0.1,0.5v59.9l0.1,0.5l0.1,0.4l0.2,0.5l0.2,0.4l0.2,0.5l0.3,0.4l0.4,0.4l0.4,0.3l0.4,0.3
	c1.3,0.9,3.5,1.1,4.9,0.2l0.5-0.2l0.4-0.3l0.4-0.3l0.3-0.4l0.3-0.4l0.2-0.5l0.2-0.4l0.1-0.5l0.1-0.4l0.1-0.5V4.9l0.1-0.4L19.6,4
	l0.1-0.4l0.2-0.5L20,2.7l0.3-0.4c0.8-1.5,2.8-2.4,4.5-2.2l0.4,0.1l0.5,0.1l0.4,0.2l0.5,0.2c1.6,0.8,2.6,2.6,2.6,4.3V64l0.1,0.4
	c0.2,1.9,1.3,3.4,3.1,4.1l0.4,0.1l0.5,0.1l0.4,0.1h0.9l0.4-0.1l0.5-0.1l0.4-0.1c1.5-0.6,2.8-2,3-3.7l0.1-0.5l0.1-0.4V4.5L39,4
	l0.1-0.4l0.1-0.5l0.5-0.8L40,1.8l0.3-0.4l0.4-0.4l0.4-0.3l0.5-0.2L42,0.4l0.4-0.2l0.5-0.1c1.5-0.3,3.2,0.2,4.3,1.4l0.4,0.4l0.3,0.4
	l0.2,0.4l0.2,0.4l0.2,0.5L48.6,4l0.1,0.5v59.9l0.1,0.5l0.1,0.4l0.2,0.5l0.2,0.4l0.2,0.5l0.3,0.4l0.4,0.4l0.4,0.3l0.4,0.3
	c1.3,0.9,3,1,4.4,0.5l0.8-0.5l0.4-0.3l0.4-0.3l0.4-0.4l0.3-0.4l0.2-0.5l0.2-0.4l0.2-0.5l0.1-0.4l0.1-0.5V4.5L58.4,4l0.1-0.4
	c1.4-4.7,8-4.7,9.4,0L68,4l0.1,0.5V64l-0.2,2.4c-1,11.5-3,22.9-6.5,34l-0.7,2.3l-0.9,1.9l-0.8,1.9l-0.8,1.8
	c-3.5,8.7-5.4,18.1-4.8,27.5l0.1,1.9l0.2,1.8l0.2,1.9c0.5,3.1,1.2,6.1,2.1,9.1l0.6,1.9l0.7,1.8c0.7,2.6,2.4,5.6,3.3,8l0.1,0.6V395
	c-0.3,1.5-1.3,2.5-2.9,2.6H10c-1.6-0.3-2.5-1.3-2.6-2.9V216.1"/>
</svg>
