<?xml version="1.0" encoding="utf-8"?>
<!-- Generator: Adobe Illustrator 17.1.0, SVG Export Plug-In . SVG Version: 6.00 Build 0)  -->
<!DOCTYPE svg PUBLIC "-//W3C//DTD SVG 1.1//EN" "http://www.w3.org/Graphics/SVG/1.1/DTD/svg11.dtd">
<svg version="1.1" xmlns="http://www.w3.org/2000/svg" xmlns:xlink="http://www.w3.org/1999/xlink" x="0px" y="0px"
	 viewBox="0 0 1100 1092" enable-background="new 0 0 1100 1092" xml:space="preserve">
<g id="Layer_2" display="none">
	<rect display="inline" fill="#FBB03B" width="1100" height="1092"/>
</g>
<g id="Layer_1">
	<line fill="#FFFFFF" x1="480.7" y1="485.4" x2="480.7" y2="485.4"/>
	<g>
		<path fill="#FFFFFF" d="M666.2,444.5l-0.8-2.2l-0.9-2.3c-8.3-20.4-23.7-42.8-47.6-45.1l-1.4-0.1l-1.3-0.1v256.1l-0.1,0.4l-0.1,0.4
			c-2.4,4.7-5.9,0.1-8.2-1.7l-1.9-1.3l-2-1.3c-7.4-4.6-16.9-7.5-25.6-8.5l-1.6-0.2l-1.6-0.1l-1.6-0.1c-22.3-1.2-43.5,7.8-57.9,24.9
			l-1.2,1.4l-1.1,1.4l-1.1,1.4c-28.5,38.8-18.4,98.3,25.3,121.1l1.7,0.8l1.7,0.8l1.7,0.8l1.7,0.7l1.7,0.7c16.2,5.8,34.6,5.8,50.5-1
			l2.1-1l2-1l1.9-1.1l1.9-1.2l1.7-1.3l1.7-1.4l3.1-3l0.3-0.3l0.4-0.2l0.4-0.2l0.4-0.1l0.4-0.1h0.4l0.4,0.1l0.4,0.1l0.4,0.2
			c2.9,1.8,0.7,6.9,1.6,9.4l0.1,0.3l0.1,0.2l0.2,0.2l0.2,0.2l0.2,0.2l0.2,0.2l0.5,0.2l0.3,0.1l0.2,0.1l0.3,0.1h48.1l0.2-0.1l0.3-0.1
			l0.2-0.1l0.2-0.1l0.2-0.1l0.2-0.2l0.4-0.4l0.2-0.2l0.1-0.2l0.1-0.3l0.1-0.2l0.1-0.2l0.1-0.3V610.9l-0.1-0.4v-0.3l-0.2-0.6
			l-0.9-1.9c-7.7-16.8-8.3-34.1-1.3-51.3l0.8-1.8l0.8-1.9l0.9-1.8l1-3.2l1-3.1C678.1,512.8,677.3,475.8,666.2,444.5z M613.4,730.7
			l-0.6,1.4l-0.7,1.4c-7.8,16.2-25.6,19.7-41.8,16l-1.6-0.5l-1.6-0.5l-1.6-0.7l-1.5-0.7c-14.7-7.5-19.6-25.8-14.8-40.9l0.5-1.6
			l0.6-1.5c7.2-15.8,24.3-21.6,40.6-17.9l1.7,0.5l1.6,0.5l1.6,0.7l3,1.4l1.4,0.8C614.6,697.8,618.7,715.7,613.4,730.7z"/>
		<path fill="#FFFFFF" d="M297.3,254.7l-0.1-0.5c-1.4-4.7-8-4.7-9.4,0l-0.1,0.5l-0.1,0.4v59.5l-0.1,0.5l-0.1,0.4l-0.1,0.5l-0.2,0.4
			l-0.2,0.5l-0.3,0.4l-0.2,0.4l-0.4,0.4l-0.4,0.3l-0.4,0.3l-0.4,0.2l-0.5,0.2c-1.6,0.6-3,0.4-4.4-0.5l-0.4-0.3l-0.4-0.3l-0.3-0.4
			l-0.3-0.4l-0.2-0.4l-0.2-0.5l-0.1-0.4l-0.1-0.5l-0.1-0.4v-59.6l-0.1-0.8l-0.2-1l-0.5-0.8l-0.3-0.4l-0.3-0.4
			c-1-1.1-2.9-1.6-4.3-1.3l-0.5,0.1l-0.4,0.2l-0.5,0.2l-0.4,0.2l-0.4,0.3l-0.7,0.7l-0.2,0.4l-0.3,0.4l-0.2,0.4l-0.2,0.5l-0.1,0.5
			l-0.1,0.8v59.6l-0.1,0.4c-0.4,1.9-1.3,2.8-3,3.7l-0.4,0.1l-0.5,0.1l-0.5,0.1l-0.4,0.1l-0.4-0.1l-0.5-0.1l-0.4-0.1l-0.5-0.1
			c-1.9-1-2.7-2-3.1-4.1v-59.6c0-1.8-1.1-3.5-2.6-4.3l-0.4-0.2l-0.5-0.2l-0.4-0.1l-0.5-0.1c-1.8-0.2-3.5,0.7-4.5,2.2l-0.2,0.4
			l-0.2,0.4l-0.2,0.5l-0.1,0.5l-0.1,0.4v60l-0.1,0.4l-0.1,0.5l-0.2,0.4l-0.2,0.5l-0.2,0.4l-0.3,0.4l-0.4,0.4l-0.4,0.3l-0.4,0.3
			l-0.4,0.2c-1.6,0.9-3.4,0.7-4.9-0.2l-0.4-0.3l-0.4-0.3l-0.3-0.4l-0.3-0.4l-0.2-0.4l-0.2-0.5l-0.1-0.4l-0.1-0.5l-0.1-0.4v-59.6
			l-0.1-0.8l-0.1-0.5l-0.2-0.5c-1.7-4.3-7.9-4-9.2,0.5l-0.1,0.5l-0.1,0.4v59.5l0.2,2.5c1,11.5,3,22.9,6.5,34l0.7,2.3l0.9,1.8
			l0.8,1.9l0.8,1.8l0.7,1.9l0.7,1.8c3.2,9.4,4.4,19.5,2.8,29.3l-0.3,1.9l-0.4,1.8l-0.4,1.9c-0.8,3.6-2.2,7.6-3.7,11l-0.8,1.8
			L237,412l-0.2,0.6l-0.1,0.3v40.6l-0.1,0.4l-0.1,0.4l-0.2,0.4L236,455l-0.3,0.3l-0.3,0.2c-1,0.5-1.2,0.5-2.3,0.3l-0.4-0.2l-0.4-0.2
			c-2.9-2.7-6.2-5.1-9.7-7l-2.1-1.1l-4.3-1.9c-8.3-3.2-16.4-4.7-25.3-4.8l-2,0.1l-2,0.1l-2,0.1l-2,0.2c-51.3,5.5-77.6,61-61.2,107.2
			l0.7,1.9l0.7,1.8l0.7,1.7l0.8,1.7l0.8,1.7c9.7,20.1,28.7,35.7,50.6,40.3l1.9,0.4l1.9,0.3l1.9,0.3c9.1,1.2,18.9,0.8,27.7-1.9
			l1.6-0.5l1.6-0.5l1.6-0.5c4.1-1.5,7.3-3,11-5.5l1.8-1.3l1.7-1.4l1.6-1.4l1.5-1.6l0.3-0.3l0.4-0.2l0.4-0.2l0.4-0.1l0.4-0.1h0.4
			l0.4,0.1l0.4,0.1l0.4,0.2l0.4,0.2l0.3,0.3l0.3,0.4c1.3,2.3,0.1,5.4,0.5,7.7l0.1,0.3l0.1,0.2l0.1,0.3l0.1,0.2l0.5,0.7l0.2,0.2
			l0.2,0.2l0.3,0.1l0.5,0.2l0.3,0.1h48.7l0.2-0.1l0.2-0.1c0.6-0.2,1-0.6,1.4-1.1l0.2-0.5l0.1-0.3l0.1-0.2V412.9l-0.1-0.6l-0.2-0.3
			l-0.8-1.9l-0.8-1.8l-0.7-1.9c-1.4-3.4-2.6-7.4-3.4-11l-0.4-1.8l-0.3-1.9L283,390c-1.1-9.2,0.1-18.7,3.1-27.5l0.7-1.8l0.7-1.9
			l0.8-1.8l0.8-1.9l0.8-1.8l0.8-2.3c3.4-11,5.5-22.5,6.5-34l0.2-2.5v-59.5L297.3,254.7z M236,533l-0.6,1.4l-0.7,1.4
			c-7.8,16.2-25.6,19.8-41.8,16l-1.7-0.5l-1.6-0.5l-3-1.3c-14.7-7.8-19.6-25.7-14.8-40.9l0.6-1.6l0.6-1.4
			c6.9-15.8,24.4-21.7,40.6-17.9l1.7,0.5l1.7,0.5l1.6,0.7l1.6,0.7l2.9,1.6C237.2,500.1,241.3,518.1,236,533z"/>
		<path fill="#FFFFFF" d="M751.9,792.3H704l-0.2-0.1c-1.3-0.2-2.1-1.3-2.3-2.5V645.6c0-1.4,1-2.5,2.3-2.8l0.2-0.1h48.1
			c1.4,0.3,2.2,1,2.6,2.3v144.4c0,0.9,0,0.5-0.3,1.3l-0.1,0.2l-0.2,0.2c-0.5,0.5-0.5,0.5-1.1,0.8l-0.3,0.1l-0.2,0.1l-0.3,0.1H751.9"
			/>
		<path fill="#FFFFFF" d="M869.1,679.8l-1.9,0.1l-1.9,0.1l-1.7,0.2l-1.7,0.3l-1.6,0.4c-6.1,1.7-11.2,6.2-13.9,11.8l-0.7,1.3
			l-0.5,1.3l-0.5,1.4c-1,2.6-1.3,5-1.8,7.7l-0.2,1.6l-0.4,3.4l-0.1,1.7l-0.1,3.5v75.1L842,790l-0.1,0.5l-0.1,0.3l-0.2,0.2l-0.1,0.2
			l-0.2,0.2l-0.2,0.2l-0.2,0.2l-0.2,0.1l-0.3,0.1l-0.5,0.1l-0.3,0.1h-48.1l-0.2-0.1l-0.3-0.1l-0.2-0.1c-0.9-0.4-0.5-0.1-1.1-0.8
			l-0.4-0.5l-0.1-0.3l-0.1-0.5l-0.1-0.3V645.3l0.1-0.2l0.1-0.2l0.1-0.3l0.1-0.2l0.5-0.7l0.2-0.2l0.2-0.2l0.3-0.1l0.2-0.1l0.2-0.1
			l0.3-0.1l0.2-0.1h48.1l0.3,0.1l0.2,0.1l0.2,0.1l0.3,0.1l0.2,0.1l0.2,0.2l0.4,0.4l0.1,0.2l0.2,0.2l0.1,0.2l0.1,0.3l0.1,0.5v8.5
			l0.1,0.8l0.2,0.4l0.2,0.4l0.2,0.3c3.3,2.7,4.8-1.1,7-3.1l1-1l1-0.8c4.4-4.1,9.7-7.3,15.4-9.2l1.5-0.5l1.6-0.5l1.6-0.4l1.6-0.4
			l1.7-0.3l1.7-0.3c40.7-5.6,66.3,12.5,68.6,54.2l0.1,1.6l0.1,3.4V790l-0.1,0.2l-0.1,0.2l-0.1,0.3l-0.1,0.2l-0.2,0.2l-0.2,0.2
			l-0.2,0.2l-0.2,0.2l-0.2,0.1l-0.3,0.1l-0.2,0.1l-0.2,0.1l-0.3,0.1H895l-0.2-0.1l-0.3-0.1l-0.2-0.1L894,792l-0.3-0.1l-0.6-0.6
			l-0.4-0.5l-0.1-0.3l-0.1-0.5l-0.1-0.3v-84.2l-0.1-1.7l-0.2-1.7l-0.2-1.6l-0.3-1.7c-0.6-2.7-1.1-5.2-2.4-7.6l-0.7-1.4l-0.8-1.3
			l-0.9-1.3c-3.3-4.2-7-6.2-12.2-7l-1-0.2l-1.1-0.1l-1.1-0.1l-1.1-0.1H869.1"/>
		<path fill="#FFFFFF" d="M716.6,559.2l1.4-0.5l1.4-0.5l1.4-0.4c14-3.4,27.6,3.1,34,15.9l0.6,1.3l0.5,1.4c5,13.9-0.9,29.1-13.7,36.1
			l-1.3,0.7l-1.3,0.6l-1.4,0.6l-1.4,0.4c-13.5,4.3-28.1-1.9-34.7-14.2l-0.7-1.3l-0.6-1.3c-5.8-13.6-0.6-29.1,11.9-36.8l1.3-0.7
			l1.3-0.7L716.6,559.2"/>
		<path fill="#FFFFFF" d="M339.2,361.6l1.3-0.5l1.4-0.5l1.4-0.4c13.6-3.6,27.9,3.3,34,15.9l0.7,1.3l0.5,1.3
			c5,13.8-0.9,29.1-13.8,36.1l-1.3,0.7l-1.3,0.7l-1.3,0.5l-1.4,0.5c-13.7,4.1-27.9-1.8-34.8-14.3l-0.7-1.3l-0.6-1.3
			c-5.7-13.7-0.6-29,12-36.8l1.2-0.7l1.3-0.7L339.2,361.6"/>
		<path fill="#FFFFFF" d="M491.7,482.1l-1.9,0.1l-1.9,0.1l-1.8,0.2l-1.7,0.3l-1.6,0.4c-6.4,1.9-10.9,6-14,11.8l-0.6,1.3l-0.6,1.4
			l-0.5,1.4c-0.8,2.6-1.4,5-1.7,7.7l-0.2,1.6l-0.2,1.7l-0.2,3.4l-0.1,1.7v76.9l-0.1,0.3l-0.1,0.2l-0.1,0.3l-0.2,0.5l-0.4,0.5
			l-0.5,0.4l-0.5,0.2l-0.3,0.1l-0.2,0.1h-48.7l-0.2-0.1l-0.3-0.1l-0.5-0.2l-0.5-0.4l-0.4-0.5l-0.1-0.2c-0.3-0.6-0.3-0.7-0.3-1.3
			V447.5l0.1-0.2l0.1-0.3l0.2-0.5l0.4-0.5l0.5-0.4l0.5-0.2l0.3-0.1l0.2-0.1h0.3l0.2-0.1h47.6l0.3,0.1h0.2l0.2,0.1l0.3,0.1l0.2,0.1
			c0.5,0.3,0.8,0.5,1.1,1l0.2,0.5l0.1,0.3l0.1,0.5v8.9l0.1,0.4l0.1,0.4l0.2,0.4l0.3,0.4c3.4,2.6,4.8-1.3,7-3.1l0.9-0.9l1-0.9
			c4.7-4.3,9.4-7.1,15.4-9.2l3.1-1l1.6-0.4l1.6-0.4l1.7-0.4l1.7-0.3c40.7-5.6,66.3,12.5,68.7,54.2l0.1,1.7l0.1,1.6l0.1,1.7v91.2
			l-0.1,0.3l-0.1,0.2l-0.1,0.3l-0.1,0.2l-0.2,0.2c-0.3,0.5-0.6,0.7-1.1,1l-0.5,0.2l-0.3,0.1h-48.7l-0.2-0.1l-0.3-0.1l-0.2-0.1
			c-0.5-0.3-0.8-0.5-1.1-1l-0.2-0.5l-0.1-0.3l-0.1-0.2v-82.7l-0.1-1.7l-0.1-1.7l-0.2-1.7l-0.5-3.2c-0.5-2.6-1.3-5.3-2.4-7.7
			l-0.7-1.4l-0.8-1.3l-0.9-1.3c-3.3-4.2-6.9-6.2-12.1-7l-1-0.1l-1.1-0.1l-1.1-0.1h-1.1L491.7,482.1"/>
		<path fill="#FFFFFF" d="M374.5,594.6h-48.2c-1.3-0.3-2.1-1.3-2.3-2.6V448c0-1.4,0.9-2.5,2.3-2.8h0.3l0.2-0.1h47.6l0.2,0.1
			c1.2,0,2.3,1.1,2.5,2.3l0.1,0.2v144.4l-0.1,0.3l-0.1,0.2l-0.1,0.3l-0.1,0.2l-0.4,0.5c-0.4,0.6-0.5,0.5-1.1,0.8l-0.2,0.1l-0.3,0.1
			H374.5"/>
	</g>
	<line fill="#FFFFFF" x1="858.1" y1="683.1" x2="858.1" y2="683.1"/>
	<circle fill="none" stroke="#FFFFFF" stroke-width="49" stroke-miterlimit="10" cx="551.5" cy="547" r="516.7"/>
</g>
</svg>
